<svg width="14" height="21" viewBox="0 0 14 21" fill="none" xmlns="http://www.w3.org/2000/svg">
<path d="M2.57381 4.97021C2.08907 4.97021 1.64838 5.14649 1.31788 5.477C0.965343 5.82954 0.789062 6.27019 0.789062 6.7329C0.789062 7.21764 0.987368 7.65833 1.31788 7.98883C1.64838 8.31934 2.1111 8.51765 2.55178 8.49562C2.55178 8.49562 2.57381 8.49562 2.59586 8.49562C3.03654 8.49562 3.45518 8.31934 3.78569 7.98883C4.1162 7.65833 4.3145 7.21764 4.3145 6.7329C4.33653 6.27019 4.13822 5.82951 3.80771 5.499C3.4772 5.14647 3.03652 4.97021 2.57381 4.97021ZM3.47721 7.68038C3.23482 7.92276 2.90432 8.07699 2.55178 8.05496C2.22127 8.05496 1.86874 7.92276 1.62636 7.68038C1.36195 7.438 1.22975 7.08546 1.22975 6.73293C1.22975 6.3804 1.36195 6.04989 1.62636 5.78549C1.86874 5.5431 2.19925 5.4109 2.57381 5.4109C2.90432 5.4109 3.23482 5.5431 3.47721 5.78549C3.74161 6.04989 3.87381 6.3804 3.87381 6.73293C3.87381 7.08546 3.74161 7.438 3.47721 7.68038Z" fill="white"/>
<path d="M3.4335 8.93604H1.64876C1.29622 8.93604 1.00977 9.22247 1.00977 9.59706V17.3089C1.00977 17.6614 1.31825 17.9699 1.67078 17.9699H3.4335C3.78604 17.9699 4.09452 17.6614 4.09452 17.3309V9.59706C4.09452 9.2445 3.78604 8.93604 3.4335 8.93604ZM3.65383 17.3309C3.65383 17.4411 3.54365 17.5292 3.4335 17.5292H1.67078C1.5606 17.5292 1.45045 17.4191 1.45045 17.3089V9.59706C1.45045 9.48688 1.53858 9.37672 1.64876 9.37672H3.4335C3.54368 9.37672 3.65383 9.4869 3.65383 9.59706V17.3309Z" fill="white"/>
<path d="M10.9247 8.71631H10.462C9.60264 8.71631 8.78739 9.0909 8.25858 9.68581V9.37733C8.25858 9.157 8.03825 8.93664 7.81789 8.93664H5.61451C5.41621 8.93664 5.17383 9.11292 5.17383 9.35528V17.5739C5.17383 17.8163 5.41621 17.9705 5.61451 17.9705H8.03825C8.23656 17.9705 8.47894 17.8163 8.47894 17.5739V12.8146C8.47894 12.0875 9.00775 11.5146 9.69079 11.5146C10.0433 11.5146 10.3738 11.6468 10.6162 11.8892C10.8365 12.0875 10.9247 12.396 10.9247 12.7926V17.5298C10.9247 17.7502 11.145 17.9705 11.3654 17.9705H13.5688C13.7891 17.9705 14.0094 17.7502 14.0094 17.5298V11.8451C14.0094 10.0824 12.6654 8.71631 10.9247 8.71631ZM13.5687 17.5078L13.5467 17.5298H11.3874L11.3654 12.7926C11.3654 12.2638 11.2332 11.8672 10.9467 11.5807C10.6162 11.2502 10.1755 11.0739 9.71282 11.0739C8.78739 11.096 8.06028 11.8451 8.06028 12.8146V17.5298H5.63654V9.37733H7.81789L7.83992 9.39936V10.7875L8.43483 10.1926L8.45686 10.1705C8.89755 9.55361 9.66872 9.157 10.484 9.157H10.9467C12.423 9.157 13.5687 10.3468 13.5687 11.8451V17.5078Z" fill="white"/>
</svg>
